<svg width="30" height="30" viewBox="0 0 30 30" fill="none" xmlns="http://www.w3.org/2000/svg">
    <path d="M7.5 17.5C6.8125 17.5 6.25 18.0625 6.25 18.75V22.5C6.25 23.1875 6.8125 23.75 7.5 23.75H11.25C11.9375 23.75 12.5 23.1875 12.5 22.5C12.5 21.8125 11.9375 21.25 11.25 21.25H8.75V18.75C8.75 18.0625 8.1875 17.5 7.5 17.5ZM7.5 12.5C8.1875 12.5 8.75 11.9375 8.75 11.25V8.75H11.25C11.9375 8.75 12.5 8.1875 12.5 7.5C12.5 6.8125 11.9375 6.25 11.25 6.25H7.5C6.8125 6.25 6.25 6.8125 6.25 7.5V11.25C6.25 11.9375 6.8125 12.5 7.5 12.5ZM21.25 21.25H18.75C18.0625 21.25 17.5 21.8125 17.5 22.5C17.5 23.1875 18.0625 23.75 18.75 23.75H22.5C23.1875 23.75 23.75 23.1875 23.75 22.5V18.75C23.75 18.0625 23.1875 17.5 22.5 17.5C21.8125 17.5 21.25 18.0625 21.25 18.75V21.25ZM17.5 7.5C17.5 8.1875 18.0625 8.75 18.75 8.75H21.25V11.25C21.25 11.9375 21.8125 12.5 22.5 12.5C23.1875 12.5 23.75 11.9375 23.75 11.25V7.5C23.75 6.8125 23.1875 6.25 22.5 6.25H18.75C18.0625 6.25 17.5 6.8125 17.5 7.5Z" fill="white"/>
</svg>
